<svg xmlns="http://www.w3.org/2000/svg" width="44.153" height="44.845" viewBox="0 0 44.153 44.845"><g transform="translate(7.222 -904.968) rotate(39)"><g transform="translate(580.52 694.38)"><path d="M597.681,726.957c11.561-4.668,14.017-16.8,10.663-25.1q-.165-.408-.346-.806a13.787,13.787,0,0,0,1.822-4.52,13.547,13.547,0,0,1-3.21,2.447,6.8,6.8,0,0,0,1.36-4.593,13.571,13.571,0,0,1-3.375,3.138,6.785,6.785,0,0,0-8.4,10.057,19.242,19.242,0,0,1-15.607-1.336,6.783,6.783,0,0,0,5.334,7.605,6.725,6.725,0,0,1-3.164.363c.009.027.02.053.031.081a6.782,6.782,0,0,0,7.531,4.126,6.777,6.777,0,0,1-2.8,1.254,6.786,6.786,0,0,0,7.634,1.995,13.714,13.714,0,0,1-8.255,6.361,19.185,19.185,0,0,0,10.775-1.067" transform="translate(-580.52 -694.38)"/></g></g></svg>