<svg xmlns="http://www.w3.org/2000/svg" width="40.904" height="40.904" viewBox="0 0 40.904 40.904"><g transform="translate(-523.351 -878.24) rotate(21)"><g transform="translate(813.916 628.29)"><path d="M825.521,633.344c3.51-1.376,3.931-1.526,5.342-2.006a7.8,7.8,0,0,1,2.618-.5,4.676,4.676,0,0,1,3.473,1.516,7.821,7.821,0,0,1,1.41,2.263c.607,1.362.783,1.772,2.159,5.282s1.526,3.931,2.006,5.342a7.8,7.8,0,0,1,.5,2.618,4.677,4.677,0,0,1-1.516,3.473,7.81,7.81,0,0,1-2.263,1.41c-1.361.606-1.771.783-5.282,2.159s-3.931,1.526-5.341,2.006a7.805,7.805,0,0,1-2.619.5,4.677,4.677,0,0,1-3.473-1.516,7.822,7.822,0,0,1-1.41-2.263c-.607-1.361-.783-1.772-2.159-5.282s-1.526-3.931-2.006-5.341a7.808,7.808,0,0,1-.5-2.619,4.677,4.677,0,0,1,1.516-3.473,7.819,7.819,0,0,1,2.263-1.41c1.362-.607,1.772-.783,5.282-2.159m-.928-2.368c-3.57,1.4-4.011,1.591-5.389,2.2a10.365,10.365,0,0,0-2.951,1.862,7.221,7.221,0,0,0-2.337,5.352,10.371,10.371,0,0,0,.64,3.43c.486,1.427.646,1.88,2.046,5.45s1.591,4.011,2.2,5.388a10.357,10.357,0,0,0,1.862,2.951,7.221,7.221,0,0,0,5.351,2.337,10.365,10.365,0,0,0,3.43-.64c1.427-.486,1.881-.646,5.451-2.046s4.011-1.59,5.388-2.2a10.346,10.346,0,0,0,2.951-1.862,7.221,7.221,0,0,0,2.337-5.351,10.365,10.365,0,0,0-.64-3.43c-.486-1.427-.646-1.881-2.046-5.45s-1.59-4.011-2.2-5.389a10.36,10.36,0,0,0-1.862-2.951,7.219,7.219,0,0,0-5.351-2.337,10.352,10.352,0,0,0-3.43.64c-1.427.486-1.881.646-5.45,2.046Z" transform="translate(-813.916 -628.29)"/><path d="M835.495,645.765a7.25,7.25,0,1,0,9.4,4.1A7.25,7.25,0,0,0,835.495,645.765Zm4.364,11.131a4.706,4.706,0,1,1,2.663-6.1A4.706,4.706,0,0,1,839.859,656.9Z" transform="translate(-822.311 -636.684)"/><circle cx="1.694" cy="1.694" r="1.694" transform="translate(18.402 4.368)"/></g></g></svg>