<?xml version="1.0" encoding="UTF-8"?><svg id="Layer_2" xmlns="http://www.w3.org/2000/svg" viewBox="0 0 562.79 159.44"><defs><style>.cls-1{fill:#fff;}</style></defs><g id="Layer_1-2"><g><path class="cls-1" d="M87.89,0c-7.5,0-12.16,4.65-12.16,10.54s4.66,10.35,12.16,10.35,12.06-4.56,12.06-10.35S95.3,0,87.89,0Z"/><path class="cls-1" d="M146.51,47.3V24.79c-7.17,.39-13.71,4.21-17.57,10.26v-9.88h-21.09v53.57h21.09v-21.94c0-7.31,3.99-9.5,11.59-9.5h5.98Z"/><path class="cls-1" d="M155.56,56.8c0,16.63,9.5,21.94,22.03,21.94h7.98v-17.95h-5.03c-2.76,0-3.89-1.14-3.89-3.61v-14.44h8.73V25.17h-8.73V12.25h-21.09v12.92h-6.65v17.57h6.65v14.06Z"/><path class="cls-1" d="M212.85,79.11h0c6.6,.23,12.83-3.01,16.43-8.54v8.16h21.09V25.17h-21.09v28.41c.39,4.14-2.65,7.82-6.8,8.21-4.14,.39-7.82-2.65-8.21-6.8-.04-.47-.04-.94,0-1.41V25.17h-20.99v31.06c0,13.87,7.22,22.89,19.56,22.89Z"/><path class="cls-1" d="M279.18,79.4h0c6.06,.41,11.82-2.69,14.81-7.98v7.31h20.99V25.17h-20.99v7.31c-3-5.28-8.75-8.38-14.81-7.98-12.35,0-22.13,10.16-22.13,27.45s9.78,27.45,22.13,27.45Zm7.03-36.47c4.37,0,7.79,3.13,7.79,9.02s-3.42,9.03-7.79,9.03-7.79-3.14-7.79-9.03,3.42-9.02,7.79-9.02Z"/><rect class="cls-1" x="324.52" y="8.45" width="21.09" height="140.05"/><path class="cls-1" d="M170.85,113.45h18.71c-1.51-10.54-9.02-19.18-24.31-19.18s-22.79,7.98-22.79,17.66c0,19.65,27.64,13.21,27.64,20.23,0,1.33-1.33,2.47-3.52,2.47-3.01,.41-5.79-1.66-6.27-4.66h-20.23c.95,10.92,11.11,19.19,26.61,19.19,14.25,0,22.79-7.22,22.79-16.72,0-20.61-28.02-14.44-28.02-21.09,0-1.62,1.24-2.47,3.33-2.47h-.01c2.91-.32,5.57,1.68,6.08,4.56Z"/><path class="cls-1" d="M223.31,94.28c-16.15,0-28.31,10.35-28.31,27.45s12.16,27.45,28.31,27.45,28.3-10.35,28.3-27.45-12.16-27.45-28.3-27.45Zm0,36.66c-3.8,0-6.93-2.85-6.93-9.22s3.23-9.21,6.93-9.21,6.93,2.85,6.93,9.21-3.23,9.22-6.93,9.22Z"/><path class="cls-1" d="M293.91,123.33c.39,4.14-2.65,7.82-6.8,8.21-4.14,.39-7.82-2.65-8.21-6.8-.04-.47-.04-.94,0-1.41v-28.4h-20.99v31.06c0,13.87,7.22,22.89,19.56,22.89,6.6,.23,12.83-3.01,16.43-8.54v8.16h21.09v-53.56h-21.09v28.4Z"/><polygon class="cls-1" points="36.28 57.74 22.42 11.49 0 11.49 22.61 78.72 49.86 78.72 72.47 11.48 50.05 11.49 36.28 57.74"/><rect class="cls-1" x="77.26" y="25.17" width="21.09" height="53.57"/><path class="cls-1" d="M438.55,27.05h-.25l-.6,.07-.7,.09-.75,.16-.6,.12c-.45,.08-.92,.2-1.37,.33l-.53,.14-.7,.22-.53,.18c-1.06,.37-2.09,.81-3.08,1.33l-.57,.3c-.17,.08-.35,.17-.56,.3l-.32,.19c-.42,.24-.86,.54-1.3,.84l-.45,.3c-.58,.42-1.17,.92-1.74,1.38l-.39,.35-.26,.25-.12,.11c-.8,.76-1.56,1.57-2.25,2.44l-.12,.15-.25,.32-.08,.1c-1.94,2.53-3.38,5.42-4.23,8.49-.12,.41-.21,.79-.3,1.17l-.07,.37c-.18,.82-.31,1.65-.4,2.49l-1.54,.07,.22,5.22,5.16-.23-.23-5.22-.98,.05c.08-.62,.18-1.24,.3-1.85l.07-.36c.07-.33,.17-.67,.27-1.02,.77-2.75,2.06-5.33,3.81-7.59l.07-.11,.2-.25,.12-.15c.62-.77,1.29-1.5,2.01-2.18l.13-.12,.21-.19,.38-.34c.49-.43,1-.84,1.54-1.23l.39-.27c.39-.28,.78-.53,1.15-.76l.32-.19c.14-.08,.28-.17,.44-.24l.56-.3c.89-.46,1.8-.85,2.74-1.18l.48-.11,.6-.18,.48-.14c.41-.12,.82-.22,1.21-.3l.57-.1,.62-.11,.68-.09h.37l-.06,1,5.16,.28,.34-5.21-5.16-.35-.1,1.55Z"/><path class="cls-1" d="M446.64,26.33l-1.42,5.02,4.97,1.43,.27-.92,.42,.21,.52,.28c.4,.21,.79,.44,1.16,.69l.18,.11,.36,.24c.76,.52,1.49,1.08,2.19,1.69l.11,.09,.27,.26,.07,.06c.27,.26,.55,.54,.82,.8l-.82,.6,2.96,4.25,4.23-3-2.97-4.28-1.24,.92c-.4-.42-.8-.83-1.22-1.23l-.06-.05-.35-.3-.1-.09c-.77-.66-1.58-1.28-2.42-1.85l-.43-.28-.17-.11c-.45-.28-.91-.55-1.32-.78l-.56-.3-.91-.45,.42-1.51-4.96-1.51Z"/><path class="cls-1" d="M444.2,36.22c-.25-.05-.59-.13-.91-.18l-.53-.08-1.15-.1h-.45c-.5-.03-1.01-.03-1.51,0l-.69,.05h-.32l-.54,.07-.28,.05-.52,.09c-.24,.05-.5,.11-.76,.18l-.46,.13-.32,.1-.47,.16c-.66,.23-1.3,.51-1.92,.82l-.58,.32-.43,.25c-.25,.15-.51,.32-.79,.52l-.34,.24c-.36,.26-.7,.54-1.06,.84l-.41,.37,.75,.85-.78-.82-.15,.14c-.51,.48-.98,.99-1.42,1.54l-.32,.41c-1.26,1.63-2.19,3.49-2.74,5.48-.07,.24-.13,.47-.18,.71l-.06,.3c-.24,1.13-.36,2.28-.36,3.43v.76c0,.29,.01,.58,.06,.87,.37,3.61,1.93,6.99,4.44,9.61l.13,.14c.1,.1,.2,.21,.34,.33l.15,.16c.14,.14,.29,.28,.48,.44l.6,.53,19.56,19.69-.91,.92,3.66,3.68,3.67-3.7-3.66-3.69-.91,.91-19.52-19.75-.69-.6c-.16-.14-.29-.26-.42-.38l-.17-.16c-.08-.08-.16-.15-.24-.24l-.14-.14c-2.1-2.19-3.41-5.02-3.72-8.04,.01-.24,0-.48-.05-.71v-.68c-.01-.97,.07-1.93,.25-2.88l.06-.3c.02-.2,.07-.39,.15-.57,.46-1.67,1.23-3.24,2.29-4.62l.27-.35c.37-.45,.76-.88,1.18-1.28l.52-.47c.28-.24,.56-.47,.86-.68l.3-.21c.23-.16,.45-.31,.64-.42l.91-.5c.5-.26,1.02-.49,1.55-.67l.46-.16,.19-.05,.43-.12c.21-.06,.41-.11,.6-.15l.47-.09h.15l.53-.07h2.42c.32,0,.64,.04,.96,.08l.45,.06c.27,.05,.55,.09,.76,.15l.4,.09,1.09,.33,.57,.21,.28,.12c.38,.17,.64,.3,.79,.37l.47,.25c.19,.1,.4,.22,.6,.36l.35,.23c.47,.32,.92,.67,1.35,1.04l.28,.26,.06,.06-.73,.65,3.53,4.02,3.75-3.34-3.53-4.02-1.07,.96-.24-.22-.35-.3c-.51-.44-1.04-.86-1.6-1.24l-.15-.1-.26-.17c-.25-.17-.51-.31-.76-.45l-.48-.26c-.2-.1-.52-.27-.99-.47l-.3-.13c-.29-.11-.54-.21-.74-.27l-.68-.22-.62-.18-.45-.1Z"/><path class="cls-1" d="M421.28,67.61c.5,.63,1.03,1.24,1.59,1.84l.08,.09c.22,.22,.44,.45,.68,.67l.11,.1c.21,.2,.45,.43,.75,.69l.39,.34,39.6,40.01-.91,.92,3.61,3.66,3.66-3.69-3.66-3.69-.91,.92-39.61-40.03-.49-.43-.69-.6-.12-.12-.57-.56-.1-.11c-.4-.43-.8-.88-1.17-1.34l.91-.51-2.58-4.54-4.48,2.6,2.58,4.54,1.31-.77Z"/><polygon class="cls-1" points="465.76 125.1 475.59 135.04 475.62 135.06 475.63 135.07 475.66 135.04 485.5 125.11 486.41 126.02 490.06 122.32 486.41 118.63 482.76 122.32 483.66 123.22 475.67 131.3 475.67 131.28 475.63 131.34 475.59 131.28 475.59 131.3 467.6 123.22 468.51 122.32 464.85 118.62 461.19 122.32 464.85 126.01 465.76 125.1"/><polygon class="cls-1" points="472.05 119.97 475.8 123.32 479.32 119.3 475.57 115.95 472.05 119.97"/><polygon class="cls-1" points="460.8 89.68 457.14 93.38 460.8 97.07 461.7 96.16 475.61 110.2 489.52 96.16 490.43 97.07 494.08 93.38 490.43 89.68 486.76 93.38 487.67 94.28 475.65 106.43 475.61 106.46 475.57 106.43 463.55 94.28 464.45 93.38 460.8 89.68"/><path class="cls-1" d="M541.33,55.21c-.7,6.95-3.69,13.47-8.52,18.53l-.05,.05c-.28,.32-.6,.62-.91,.92l-.06,.07c-.23,.27-.54,.54-.91,.88l-.27,.24-5.73,5.79-.91-.92-3.66,3.69,3.65,3.68,3.66-3.69-.91-.92,5.85-5.92c.4-.32,.74-.65,1.02-.93l.05-.05c.35-.33,.7-.67,1.02-1.02l.05-.05c5.23-5.48,8.48-12.56,9.24-20.1,.06-.67,.13-1.34,.13-1.95v-1.42c0-.77-.03-1.54-.08-2.31l1.44-.27-.91-5.14-5.09,.92,.91,5.14,1.06-.2c.05,.62,.05,1.24,.05,1.85v1.33c-.02,.56-.06,1.16-.13,1.79Z"/><path class="cls-1" d="M552.76,53.83v-1.75c0-2.98-.3-5.95-.91-8.86v-.09c-.18-.82-.38-1.69-.62-2.57-1.09-3.92-2.74-7.67-4.89-11.13l1.14-.87-3.16-4.16-4.12,3.16,3.14,4.17,.91-.68c1.96,3.18,3.46,6.63,4.46,10.23,.21,.79,.39,1.54,.55,2.28v.14c.58,2.76,.87,5.58,.87,8.4v1.65c-.03,.75-.08,1.52-.17,2.33-.7,7.18-3.33,14.03-7.61,19.83l-.87-.78-3.43,3.9,3.92,3.45,3.44-3.89-1.04-.93c4.64-6.22,7.48-13.6,8.23-21.32,.08-.86,.18-1.7,.18-2.49Z"/><polygon class="cls-1" points="436.17 109.52 439.83 105.82 436.17 102.12 435.26 103.03 418.38 85.98 419.29 85.07 415.64 81.38 411.98 85.07 415.63 88.76 416.54 87.85 433.43 104.92 432.52 105.82 436.17 109.52"/><polygon class="cls-1" points="535.59 88.77 539.25 85.08 535.59 81.39 531.93 85.08 532.84 85.99 515.96 103.04 515.05 102.13 511.39 105.82 515.05 109.52 518.71 105.82 517.8 104.92 534.68 87.87 535.59 88.77"/><path class="cls-1" d="M409.82,50.23l1.07,.2,.91-5.14-5.09-.92-.91,5.14,1.44,.27c-.05,.76-.08,1.53-.08,2.31v1.43c.01,.65,.06,1.3,.14,1.95,.75,7.54,4.01,14.62,9.24,20.1v.05c.32,.35,.67,.69,1.01,1.02l.05,.05c.28,.28,.62,.59,1.02,.93l5.85,5.93-.91,.92,3.67,3.68,3.65-3.7-3.66-3.69-.91,.92-5.74-5.79-.27-.24c-.36-.33-.67-.61-.91-.88l-.06-.07c-.3-.29-.6-.6-.91-.92v-.05c-4.83-5.05-7.83-11.57-8.53-18.53-.06-.63-.1-1.23-.13-1.79v-1.33c0-.62,0-1.24,.05-1.85Z"/><path class="cls-1" d="M526.76,71.04l.76-.69,.11-.1,.67-.67,.09-.09c.56-.59,1.08-1.21,1.58-1.84l1.32,.76,2.58-4.54-4.49-2.6-2.57,4.54,.87,.51c-.37,.46-.76,.9-1.17,1.34l-.1,.1c-.18,.18-.36,.38-.57,.56l-.12,.12-.68,.6-.47,.43-39.61,40.03-.91-.93-3.66,3.69,3.66,3.69,3.7-3.68-.91-.93,39.52-39.97,.39-.34Z"/><path class="cls-1" d="M409.27,82.47l3.85-3.46-3.43-3.9-.86,.78c-4.29-5.8-6.92-12.66-7.62-19.84-.07-.83-.13-1.59-.15-2.34v-1.65c0-2.83,.31-5.64,.91-8.4v-.14c.15-.74,.34-1.48,.56-2.28,1-3.6,2.5-7.05,4.47-10.23l.91,.68,3.13-4.16-4.13-3.16-3.14,4.18,1.14,.87c-2.15,3.46-3.8,7.21-4.88,11.14-.25,.88-.46,1.74-.63,2.57v.09c-.6,2.92-.91,5.88-.91,8.86v1.75c0,.79,.09,1.64,.18,2.49,.74,7.73,3.59,15.1,8.23,21.32l-1.04,.93,3.44,3.89Z"/><path class="cls-1" d="M530.49,7.59c.74,.34,1.48,.7,2.2,1.08l.62,.33c.43,.22,.86,.46,1.33,.74l.67,.41c.88,.53,1.74,1.11,2.65,1.72,.27,.19,.53,.37,.79,.56,1.41,1.02,2.77,2.12,4.06,3.28l2.45,2.23v.14l.37,.39c.83,.87,1.64,1.85,2.42,2.77,.28,.33,.54,.68,.82,1.05,3.78,4.96,6.58,10.61,8.23,16.63,.28,1.02,.52,2.04,.71,2.96l.18,.92c.27,1.36,.46,2.74,.6,4.13h-1.14l.16,5.34,5.16-.14-.14-5.22-1.42,.05c-.15-1.49-.36-2.97-.63-4.43v-.17l-.18-.92c-.21-1-.46-2.06-.76-3.12-1.74-6.35-4.7-12.3-8.69-17.54-.33-.4-.6-.76-.91-1.12-.69-.87-1.44-1.74-2.2-2.56v-.27l-3.33-3.02c-1.36-1.23-2.78-2.38-4.26-3.45-.28-.21-.55-.41-.85-.6-.93-.68-1.84-1.29-2.74-1.85l-.72-.43c-.5-.29-.96-.55-1.41-.78l-.65-.35c-.81-.43-1.64-.83-2.49-1.21l.47-1.28-4.85-1.84-1.81,4.89,4.84,1.84,.42-1.14Z"/><path class="cls-1" d="M420.86,14.42c-.36,.18-.74,.4-1.19,.66l-.57,.34c-.77,.46-1.55,.97-2.33,1.51l-.13,.08-.91-1.11-3.98,3.35,3.33,4.01,3.96-3.37-.72-.87c.72-.49,1.42-.93,2.12-1.37l.53-.3c.36-.2,.72-.4,1.12-.6l.53-.28c1.65-.86,3.36-1.59,5.11-2.21,.18-.07,.36-.13,.57-.2l1.31-.42,.71-.19c.82-.25,1.64-.44,2.46-.6,.23-.06,.47-.09,.72-.14,.57-.11,1.07-.2,1.6-.27l.75-.1c.49-.07,.91-.11,1.33-.14l.75-.06c1.36-.1,2.72-.13,4.08-.08h.75c.91,.05,1.83,.13,2.79,.24l1.36,.19c.91,.15,1.83,.32,2.67,.53l.84,.21,1.25,.36c.33,.09,.65,.18,1,.3l.7,.22c.71,.23,1.42,.51,2.22,.83l.62,.27c.99,.43,1.92,.87,2.82,1.35l.63,.34c.77,.41,1.54,.88,2.31,1.38l.91,.58c1.34,.92,2.63,1.92,3.85,3,.28,.23,.54,.47,.8,.72,1.45,1.35,2.8,2.81,4.04,4.37l-.91,.6,2.85,4.35,2.17-1.45,2.12,1.42,2.86-4.36-.91-.6c1.24-1.56,2.6-3.03,4.06-4.39,.26-.25,.53-.49,.8-.72,1.22-1.08,2.51-2.08,3.85-3,.3-.19,.6-.4,.91-.58,.77-.51,1.54-.97,2.31-1.38,.22-.12,.42-.24,.63-.34,.9-.48,1.84-.92,2.81-1.35l.62-.27c.8-.32,1.52-.59,2.22-.83l.7-.22,.99-.3,1.25-.34,.83-.21c.86-.2,1.77-.38,2.68-.53l1.36-.19c.93-.11,1.84-.18,2.74-.24h.75c1.36-.05,2.73-.02,4.08,.08l.75,.06c.43,.03,.84,.08,1.33,.14l.76,.1c.52,.07,1.03,.15,1.59,.27,.26,.05,.5,.08,.72,.14,.82,.18,1.64,.38,2.46,.6l.71,.19,1.31,.44,.57,.2c1.75,.61,3.46,1.35,5.11,2.21l.53,.29c.39,.19,.76,.39,1.12,.6l.52,.3c.71,.44,1.41,.88,2.12,1.37l-.73,.87,3.95,3.34,3.24-4.01-3.96-3.35-.91,1.11-.12-.08c-.78-.54-1.55-1.05-2.32-1.51l-.57-.34-1.19-.66-.57-.3c-1.73-.91-3.52-1.69-5.35-2.34l-.65-.22c-.4-.14-.87-.29-1.4-.44l-.77-.21c-.85-.24-1.74-.45-2.59-.63-.26-.08-.53-.13-.8-.15-.58-.12-1.14-.21-1.67-.27l-.83-.12c-.47-.08-.94-.13-1.42-.15l-.81-.06c-1.44-.11-2.89-.13-4.33-.08h-.79c-.99,.06-1.99,.14-2.98,.26-.49,.05-.97,.13-1.45,.2-1.03,.16-1.94,.35-2.84,.55l-.91,.21-1.32,.36-1.07,.33-.8,.28c-.74,.26-1.52,.54-2.34,.87l-.7,.3c-1.04,.44-2.07,.92-2.98,1.42l-.7,.38c-.81,.43-1.64,.93-2.46,1.47-.27,.19-.59,.41-.91,.63-1.43,.98-2.79,2.04-4.09,3.18-.29,.25-.57,.51-.86,.77-1.61,1.5-3.1,3.11-4.46,4.84l-1.19-.8-.67,1.05-.75-1.05-1.19,.8c-1.36-1.72-2.85-3.34-4.46-4.84-.29-.27-.57-.53-.87-.77-1.3-1.15-2.67-2.21-4.1-3.19-.3-.22-.64-.44-.91-.63-.81-.53-1.64-1.03-2.46-1.47l-.7-.38c-.91-.5-1.94-.98-2.97-1.42l-.71-.3c-.83-.33-1.59-.62-2.34-.87l-.74-.25-1.07-.33-1.32-.36-.91-.21c-.91-.2-1.83-.4-2.84-.55-.48-.07-.96-.15-1.45-.2-.99-.12-1.98-.2-2.97-.26h-.8c-1.44-.05-2.89-.03-4.33,.08l-.81,.06c-.47,.02-.94,.07-1.41,.15-.28,.01-.56,.05-.83,.12-.54,.06-1.09,.15-1.67,.28-.27,.02-.54,.07-.79,.15-.86,.18-1.75,.39-2.6,.63l-.77,.21c-.53,.16-1,.3-1.4,.44l-.65,.22c-1.86,.65-3.68,1.44-5.43,2.35l-.56,.3Z"/><path class="cls-1" d="M433.35,5.07l-.26-1.14,.72-.11c.33-.06,.66-.09,1-.14l1.59-.17,.91-.07c1.64-.12,3.28-.15,4.93-.09h.94c1.11,.07,2.24,.16,3.35,.3l1.68,.23c1.13,.18,2.22,.4,3.24,.63l1,.24,1.61,.43,1.16,.37,.87,.29c.87,.3,1.74,.62,2.66,.99h.06l.8,.34c1.17,.5,2.29,1.03,3.35,1.6l.85,.44c.91,.51,1.83,1.07,2.79,1.67,.37,.24,.75,.48,1.12,.73,1.63,1.11,3.18,2.32,4.66,3.63l1,.92c.43,.4,.91,.82,1.3,1.25l.91,.92h.06v-.1l.87-.88c.44-.43,.88-.85,1.31-1.25l1-.92c1.48-1.31,3.03-2.52,4.66-3.63l1.11-.73c.92-.6,1.89-1.16,2.8-1.67l.83-.45c1.06-.56,2.19-1.1,3.35-1.6l.8-.34h.05c.92-.38,1.8-.69,2.66-.99l.94-.22,1.17-.36,1.6-.43,1-.24c1.03-.24,2.12-.45,3.25-.63l1.67-.23c1.12-.15,2.24-.24,3.36-.3h.94c1.64-.06,3.29-.03,4.93,.09l.91,.07,1.59,.17,1,.14,.72,.11-.27,1.14,5.03,1.21,1.21-5.08L519.1,0l-.34,1.35-.91-.14c-.35-.07-.7-.11-1.05-.13-.55-.09-1.11-.15-1.67-.18-.35-.08-.71-.11-1.06-.09-1.72-.12-3.45-.16-5.17-.1h-1.03c-1.17,.06-2.36,.16-3.53,.3-.61,.08-1.19,.16-1.76,.25-1.2,.19-2.35,.41-3.43,.67l-1.07,.26-1.68,.45c-.42,.13-.96,.31-1.23,.39-.28,.08-.59,.19-.91,.3-.9,.3-1.82,.65-2.81,1.04h-.06l-.84,.36c-1.22,.52-2.4,1.08-3.51,1.68-.31,.14-.61,.3-.91,.48-.98,.54-1.97,1.12-2.94,1.75-.39,.25-.79,.51-1.17,.78-1.72,1.17-3.35,2.44-4.91,3.81-.37,.29-.73,.6-1.07,.92l-.45,.43-.46-.43c-.34-.33-.69-.63-1.06-.92-1.56-1.37-3.2-2.64-4.91-3.81l-1.17-.78c-.97-.63-1.97-1.22-2.94-1.75-.29-.18-.6-.34-.91-.48-1.11-.59-2.29-1.16-3.51-1.68l-.84-.36h-.06c-.99-.4-1.9-.74-2.81-1.04-.3-.11-.63-.22-.91-.3-.28-.08-.8-.26-1.23-.39l-1.68-.45-1.07-.26c-1.07-.25-2.21-.47-3.42-.67-.58-.09-1.17-.18-1.77-.25-1.17-.14-2.36-.24-3.53-.3h-1.02c-1.73-.05-3.46-.02-5.18,.1-.34,0-.67,.03-1,.09-.56,.02-1.12,.07-1.67,.16-.36,.02-.72,.07-1.08,.15l-.91,.14-.32-1.36-5.02,1.21,1.2,5.07,5.03-1.21Z"/><path class="cls-1" d="M393.79,46.94h-1.14c.15-1.38,.35-2.76,.6-4.13l.18-.92c.2-.97,.44-1.96,.71-2.96,1.65-6.02,4.45-11.66,8.23-16.63,.28-.37,.55-.72,.83-1.05,.76-.92,1.58-1.9,2.42-2.77l.36-.39v-.15l2.45-2.21c1.28-1.17,2.63-2.28,4.03-3.3,.26-.19,.52-.37,.8-.56,.92-.61,1.77-1.19,2.64-1.72l.69-.41c.47-.28,.91-.52,1.32-.74l.63-.33c.71-.38,1.45-.74,2.2-1.08l.42,1.14,4.84-1.84-1.81-4.89-4.84,1.84,.47,1.28c-.84,.38-1.67,.78-2.49,1.21l-.65,.35c-.44,.23-.91,.48-1.41,.78l-.72,.43c-.93,.55-1.84,1.16-2.74,1.85-.29,.2-.57,.4-.84,.6-1.49,1.07-2.91,2.22-4.27,3.45l-3.33,3.02v.28c-.76,.82-1.5,1.69-2.19,2.56-.28,.35-.58,.72-.91,1.12-3.99,5.23-6.94,11.19-8.69,17.54-.29,1.06-.55,2.11-.76,3.12l-.18,.93v.17c-.27,1.46-.48,2.93-.63,4.43l-1.41-.04-.15,5.22,5.18,.15,.15-5.34Z"/><polygon class="cls-1" points="475.6 155.56 468.48 148.91 466.61 150.95 475.72 159.44 483.81 150.9 481.83 148.99 475.6 155.56"/><path class="cls-1" d="M556.72,61.94l1.13,.15c-1.88,8.95-6.22,17.21-12.52,23.84-.51,.54-1.04,1.08-1.57,1.58-.39,.41-.81,.79-1.24,1.16l-.05,.05-54.21,54.76-.93-.91-3.66,3.69,3.66,3.69,3.66-3.7-.91-.92,54.18-54.72c.47-.42,.89-.8,1.27-1.17,.57-.53,1.12-1.1,1.66-1.67,6.7-7.04,11.3-15.83,13.26-25.35l1.4,.18,.67-5.16-5.14-.67-.66,5.19Z"/><polygon class="cls-1" points="515.69 96.45 519.35 92.75 515.69 89.06 512.04 92.75 512.95 93.65 495.09 111.68 494.18 110.78 490.52 114.47 494.18 118.16 497.85 114.48 496.94 113.57 514.78 95.54 515.69 96.45"/><path class="cls-1" d="M463.9,142.59l-.91,.88-54.21-54.76-.05-.04c-.46-.42-.86-.79-1.24-1.16-.53-.5-1.06-1.03-1.57-1.58-6.3-6.63-10.63-14.88-12.51-23.84l1.13-.15-.67-5.19-5.14,.67,.67,5.18,1.39-.18c1.96,9.52,6.54,18.31,13.24,25.36,.54,.57,1.11,1.15,1.66,1.67,.38,.37,.8,.76,1.27,1.17l54.17,54.73-.91,.92,3.66,3.69,3.68-3.69-3.66-3.69Z"/><path class="cls-1" d="M531.4,54.39l5.16,.23,.23-5.22-1.54-.07c-.09-.83-.22-1.66-.39-2.48l-.08-.37c-.09-.39-.19-.77-.3-1.17-.85-3.08-2.29-5.96-4.23-8.49l-.07-.1c-.08-.11-.17-.22-.26-.32l-.12-.15c-.7-.88-1.46-1.71-2.27-2.49l-.12-.15-.28-.25-.39-.35c-.54-.5-1.12-.96-1.73-1.38l-.45-.3c-.44-.31-.88-.59-1.3-.84l-.33-.19-.55-.3-.57-.3c-.99-.51-2.02-.96-3.08-1.33l-.53-.18-.71-.22-.52-.14c-.47-.13-.93-.25-1.38-.33l-.6-.12c-.25-.06-.5-.11-.75-.13l-.7-.09-.6-.07h-.25l-.1-1.55-5.16,.35,.34,5.21,5.14-.35-.06-1h.35l.69,.09,.6,.11,.57,.1c.4,.09,.8,.19,1.21,.3l.5,.14,.6,.18,.5,.18c.94,.33,1.86,.72,2.74,1.18l.57,.3,.44,.24,.32,.19c.37,.22,.75,.47,1.15,.76l.4,.28c.52,.39,1.04,.79,1.54,1.23l.38,.34,.21,.19,.13,.12c.72,.68,1.39,1.41,2.01,2.18l.13,.15,.19,.25,.08,.11c1.73,2.27,3.01,4.85,3.78,7.6,.1,.36,.18,.69,.25,1.02l.07,.36c.13,.62,.23,1.24,.3,1.85h-.91l-.24,5.22Z"/><path class="cls-1" d="M524,53.46c-.31,3.02-1.62,5.85-3.72,8.04l-.14,.14-.24,.24-.17,.16c-.11,.12-.26,.24-.41,.38l-.7,.6-19.51,19.75-.85-.94-3.66,3.69,3.66,3.68,3.64-3.69-.91-.92,19.49-19.68,.6-.53,.5-.44,.12-.13,.34-.33,.13-.14c2.51-2.62,4.07-6,4.43-9.61,.05-.29,.07-.58,.06-.87v-.8c0-1.15-.12-2.31-.36-3.43l-.06-.3c-.05-.24-.11-.47-.18-.71-.55-1.99-1.48-3.85-2.74-5.48l-.3-.41c-.44-.55-.91-1.06-1.42-1.54l-.15-.14-.77,.82,.7-.8-.41-.37c-.36-.31-.71-.58-1.06-.84l-.35-.24c-.27-.19-.54-.37-.79-.52l-.43-.25-.58-.32c-.62-.31-1.26-.59-1.91-.82l-.47-.16-.33-.1-.45-.13c-.27-.07-.53-.13-.77-.18l-.52-.09-.28-.05-.55-.07h-.32l-.69-.05c-.5-.03-1.01-.03-1.51,0h-.39l-1.15,.1-.53,.08c-.3,.05-.65,.12-.91,.18l-.45,.1-.62,.18-.67,.22c-.21,.06-.45,.15-.75,.27l-.3,.13c-.46,.2-.79,.37-.98,.47l-.49,.26c-.24,.15-.49,.28-.75,.45l-.26,.17-.15,.1c-.56,.38-1.09,.79-1.6,1.24l-.35,.3-.2,.19-1.03-.91-3.53,4.02,3.75,3.37,3.53-4.02-.78-.7,.03-.03,.28-.26c.43-.37,.88-.72,1.35-1.04l.36-.23c.19-.13,.4-.25,.6-.36l.46-.25c.15-.07,.41-.2,.79-.37l.28-.12,.57-.21,1.1-.33,.4-.09c.2-.06,.49-.1,.76-.15l.44-.06,.96-.08h2.42l.54,.07h.14l.47,.09c.2,.04,.39,.09,.6,.15l.44,.12,.18,.05,.47,.16c.53,.18,1.05,.41,1.55,.67l.91,.5c.19,.11,.41,.26,.64,.42l.3,.21c.29,.21,.59,.44,.87,.68l.51,.47c.42,.4,.81,.83,1.18,1.28l.27,.35c1.05,1.38,1.83,2.94,2.29,4.62,.07,.18,.12,.38,.15,.57l.06,.3c.2,.95,.3,1.91,.3,2.88v.68c0,.19-.05,.43-.05,.71Z"/><path class="cls-1" d="M498.61,30.12c-.41,.23-.88,.5-1.32,.78l-.19,.13c-.14,.08-.28,.18-.42,.28-.84,.56-1.65,1.18-2.42,1.85l-.1,.09-.35,.3-.06,.05c-.41,.4-.82,.8-1.21,1.23l-1.25-.92-2.96,4.27,4.22,3.01,2.97-4.27-.83-.6c.27-.27,.55-.55,.83-.8l.06-.06,.28-.26,.11-.09c.69-.61,1.41-1.18,2.17-1.69l.36-.24,.18-.11c.39-.26,.78-.49,1.16-.69l.52-.28,.42-.21,.27,.92,4.97-1.43-1.42-5.02-4.97,1.51,.43,1.51c-.3,.15-.62,.31-.91,.45l-.56,.3Z"/><path class="cls-1" d="M533.65,27.46l-.15-.14-.05-.05-.51-.47-.4-.36c-.77-.72-1.58-1.4-2.42-2.03l-.1-.08c-.1-.08-.22-.16-.34-.24l-.11-.07c-.6-.44-1.23-.83-1.81-1.18h-.05l-.39-.23-.91-.49-.17-.09-.39-.21c-1.37-.72-2.8-1.34-4.26-1.85l-.18-.06-.24-.08-.16-.05-1.07-.33h-.06l-.39-.11-.18-.05c-.67-.18-1.33-.35-1.99-.48h-.14l-.41-.08h-.15c-.43-.08-.84-.14-1.21-.19h-.21l-.42-.05h-.14l-1.01-.11h-.8c-1.13-.09-2.27-.11-3.4-.07h-.6c-.81,.05-1.6,.11-2.39,.2l-1.13,.17c-.79,.13-1.53,.27-2.21,.44h-.1l-.63,.15-1.1,.3-.71,.22-.21,.07c-.15,.04-.28,.09-.43,.14h-.08c-.57,.19-1.16,.42-1.81,.67h-.08l-.38,.16-.12,.05c-.8,.35-1.59,.72-2.31,1.11l-.17,.08-.36,.19-.09,.05c-.63,.34-1.27,.72-1.89,1.13l-.08,.05-.7,.46c-1.14,.77-2.23,1.62-3.26,2.53l-.05,.05c-.22,.18-.43,.38-.64,.57-1.01,.95-1.97,1.96-2.86,3.02l-1.11-.67-2.9,4.33,4.28,2.91,2.9-4.33-.91-.6c.77-.9,1.59-1.75,2.45-2.56,.19-.19,.39-.36,.57-.53h.07c.95-.84,1.95-1.62,3.01-2.34l.63-.42,.09-.05c.57-.38,1.15-.73,1.73-1.03l.11-.06,.27-.15,.19-.1c.67-.35,1.38-.69,2.14-1.02l.14-.05,.32-.14h.07c.59-.23,1.13-.43,1.65-.6h.1c.11-.05,.22-.08,.34-.11l.28-.09c.2-.07,.4-.13,.6-.19l1.02-.28,.56-.13h.13c.63-.15,1.32-.27,2.04-.4,.34-.07,.69-.12,1.04-.15,.72-.08,1.45-.15,2.17-.19h.62c1.05-.04,2.09-.01,3.14,.06h.73c.27,.02,.56,.1,.91,.1h.46l.28,.05c.33,.04,.69,.1,1.09,.18h.18l.32,.05h.15c.59,.12,1.21,.27,1.81,.44l.2,.05,.33,.09h.07l.91,.3,.18,.06h.12l.26,.09c1.34,.47,2.65,1.03,3.9,1.69l.36,.18,.19,.1c.27,.14,.51,.28,.79,.44l.36,.22h.06c.54,.32,1.1,.69,1.66,1.09l.13,.08,.26,.18,.12,.09c.77,.55,1.52,1.16,2.22,1.76l.39,.35,.44,.41-.83,.71,3.33,3.98,3.95-3.37-3.35-4-1.12,.92Z"/><path class="cls-1" d="M466.22,30.1c-.89-1.06-1.85-2.07-2.87-3.02l-.63-.57-.05-.05c-1.03-.91-2.12-1.76-3.25-2.53l-.7-.46-.07-.05c-.63-.41-1.27-.79-1.89-1.13l-.09-.05-.37-.19-.17-.08c-.71-.39-1.5-.76-2.31-1.11l-.12-.05-.37-.16h-.08c-.64-.26-1.23-.48-1.81-.67h-.08l-.44-.1-.21-.07-.71-.22-1.09-.3-.64-.15h-.1c-.7-.17-1.42-.31-2.21-.44l-1.13-.17c-.79-.09-1.57-.16-2.39-.2h-.6c-1.13-.04-2.27-.01-3.4,.07h-.77l-1.02,.11h-.14l-.41,.05h-.22c-.38,.05-.77,.11-1.21,.19h-.15l-.41,.08h-.14c-.65,.13-1.33,.3-1.98,.48l-.18,.05-.39,.11h-.1l-1.06,.33-.17,.05-.23,.08-.19,.06c-1.46,.51-2.89,1.13-4.26,1.85l-.38,.21-.17,.09-.91,.49-.38,.23h-.05c-.58,.35-1.19,.75-1.81,1.18l-.11,.07-.34,.24-.1,.07c-.82,.59-1.63,1.24-2.42,1.93l-.4,.36-.51,.47-.04,.06-.14,.14-1.12-.93-3.33,4,3.96,3.36,3.33-4-.83-.71,.44-.4,.39-.35c.71-.62,1.45-1.21,2.22-1.76l.12-.09,.27-.18,.12-.09c.57-.4,1.12-.76,1.67-1.09h.06l.34-.2c.28-.16,.52-.3,.8-.44l.2-.11,.35-.18c1.26-.65,2.57-1.21,3.91-1.68l.25-.09h.12l.18-.06,.97-.3h.05l.33-.08,.2-.05c.6-.18,1.21-.32,1.81-.44h.17l.33-.05h.18c.4-.07,.76-.14,1.08-.18l.3-.05h.45c.35,0,.64-.08,.91-.1h.73c1.05-.08,2.1-.1,3.14-.06h.6c.72,.05,1.46,.11,2.18,.19,.35,.02,.71,.07,1.05,.15,.72,.12,1.4,.25,2.04,.4h.11l.57,.14,1.01,.28c.2,.06,.41,.12,.6,.19l.3,.08c.12,.03,.23,.07,.35,.11h.09c.52,.16,1.07,.36,1.65,.6h.06l.32,.14,.14,.05c.76,.33,1.47,.67,2.14,1.02l.19,.1,.27,.16,.11,.06c.57,.31,1.16,.66,1.73,1.03l.1,.05,.63,.43c1.05,.72,2.05,1.5,3.01,2.33h.05c.18,.17,.37,.34,.57,.53,.87,.81,1.69,1.66,2.46,2.56l-.91,.6,2.89,4.32,4.29-2.93-2.9-4.33-1.17,.77Z"/><polygon class="cls-1" points="460.31 51.66 454.48 51.66 474.09 95.96 475.66 99.65 479.07 92.55 496.83 51.66 491.73 51.66 475.66 88.84 460.31 51.66"/><polygon class="cls-1" points="453.4 114.47 457.05 118.16 460.71 114.47 457.08 110.78 456.18 111.68 438.32 93.65 439.23 92.75 435.56 89.06 431.9 92.75 435.56 96.44 436.47 95.53 454.3 113.56 453.4 114.47"/><path class="cls-1" d="M444.74,116.28l26.23,26.49c.61,.62,1.34,1.11,2.14,1.45,.78,.33,1.61,.51,2.45,.52h.13c1.73-.02,3.38-.72,4.59-1.95l26.23-26.5,.91,.93,3.66-3.69-3.66-3.69-3.66,3.69,.91,.93-26.23,26.49c-.37,.37-.81,.67-1.29,.87-.47,.19-.96,.3-1.47,.3l-.05,.02-.06-.02h0c-.5,0-1-.1-1.47-.29-.48-.2-.92-.5-1.29-.87l-26.23-26.5,.91-.93-3.66-3.69-3.66,3.69,3.66,3.69,.91-.93Z"/></g></g></svg>