<svg xmlns="http://www.w3.org/2000/svg" xmlns:xlink="http://www.w3.org/1999/xlink" width="153.947" height="66.442" viewBox="0 0 153.947 66.442"><defs><style>.a{clip-path:url(#a);}</style><clipPath id="a"><rect width="153.947" height="66.443"/></clipPath></defs><rect width="9.392" height="23.861" transform="translate(34.412 11.211)"/><g class="a"><path d="M67.115,0C63.774,0,61.7,2.072,61.7,4.7c0,2.58,2.074,4.611,5.415,4.611,3.3,0,5.374-2.031,5.374-4.611,0-2.623-2.074-4.7-5.374-4.7" transform="translate(-27.964)"/><path d="M105.084,30.221V20.193a9.923,9.923,0,0,0-7.827,4.569v-4.4H87.865V44.224h9.392V34.451c0-3.257,1.778-4.23,5.163-4.23Z" transform="translate(-39.823 -9.152)"/><path d="M124.273,29.822c0,7.4,4.23,9.773,9.814,9.773h3.555v-8H135.4c-1.228,0-1.734-.508-1.734-1.609v-6.43h3.891V15.735h-3.891V9.98h-9.392v5.755h-2.962v7.826h2.962Z" transform="translate(-54.982 -4.523)"/><path d="M166.182,44.534a8.372,8.372,0,0,0,7.318-3.807v3.638h9.392V20.505H173.5V33.154c0,2.284-1.27,3.681-3.341,3.681-2.031,0-3.343-1.4-3.343-3.681V20.505h-9.349V34.339c0,6.177,3.216,10.2,8.715,10.2" transform="translate(-71.369 -9.294)"/><path d="M219.27,44.417c3.173,0,5.458-1.4,6.6-3.553V44.12h9.35V20.259h-9.35v3.257c-1.142-2.158-3.427-3.553-6.6-3.553-5.5,0-9.858,4.527-9.858,12.226s4.358,12.228,9.858,12.228M222.4,28.171c1.946,0,3.469,1.4,3.469,4.018s-1.522,4.02-3.469,4.02-3.469-1.4-3.469-4.02,1.523-4.018,3.469-4.018" transform="translate(-94.912 -9.048)"/><path d="M264.38,6.886V69.268h9.392V6.886Z" transform="translate(-119.826 -3.121)"/><path d="M125.115,83.31a2.478,2.478,0,0,1,2.708,2.031h8.335c-.677-4.7-4.02-8.545-10.831-8.545-6.727,0-10.153,3.553-10.153,7.868,0,8.759,12.312,5.882,12.312,9.012,0,.593-.593,1.1-1.566,1.1-1.438,0-2.582-.636-2.792-2.074h-9.012c.422,4.866,4.95,8.547,11.845,8.547,6.347,0,10.153-3.216,10.153-7.446,0-9.181-12.481-6.432-12.481-9.392,0-.72.551-1.1,1.481-1.1" transform="translate(-51.721 -34.806)"/><path d="M171.469,76.8c-7.193,0-12.608,4.611-12.608,12.226s5.416,12.227,12.608,12.227,12.606-4.611,12.606-12.227S178.66,76.8,171.469,76.8m0,16.33c-1.693,0-3.088-1.27-3.088-4.1s1.438-4.1,3.088-4.1,3.088,1.27,3.088,4.1-1.438,4.1-3.088,4.1" transform="translate(-72.001 -34.806)"/><path d="M226.146,89.986c0,2.284-1.27,3.681-3.341,3.681-2.031,0-3.344-1.4-3.344-3.681V77.337h-9.349V91.171c0,6.177,3.216,10.2,8.716,10.2a8.373,8.373,0,0,0,7.318-3.807V101.2h9.392V77.337h-9.392Z" transform="translate(-95.23 -35.052)"/><path d="M22.3,9.363l-6.134,20.6L9.985,9.363H0L10.069,39.315H22.211L32.28,9.363Z" transform="translate(0 -4.244)"/></g></svg>